<svg width="51" height="51" viewBox="0 0 51 51" fill="none" xmlns="http://www.w3.org/2000/svg">
<circle cx="25.5" cy="25.5" r="25.5" fill="#C4C4C4"/>
<path d="M40.5168 20.7372C40.5168 27.2195 35.2619 32.4744 28.7796 32.4744C22.2973 32.4744 17.0424 27.2195 17.0424 20.7372C17.0424 14.2549 22.2973 9 28.7796 9C35.2619 9 40.5168 14.2549 40.5168 20.7372ZM19.6038 20.7372C19.6038 25.8048 23.712 29.913 28.7796 29.913C33.8472 29.913 37.9553 25.8048 37.9553 20.7372C37.9553 15.6696 33.8472 11.5615 28.7796 11.5615C23.712 11.5615 19.6038 15.6696 19.6038 20.7372Z" fill="black"/>
<path d="M18.8266 28.4142C19.6077 27.6332 20.874 27.6332 21.6551 28.4142L22.1537 28.9128C22.9347 29.6939 22.9347 30.9602 22.1537 31.7413L14.7413 39.1537C13.9602 39.9347 12.6939 39.9347 11.9128 39.1537L11.4142 38.6551C10.6332 37.874 10.6332 36.6077 11.4142 35.8266L18.8266 28.4142Z" fill="black"/>
</svg>
