<svg width="37" height="30" viewBox="0 0 37 30" fill="none" xmlns="http://www.w3.org/2000/svg">
<path fill-rule="evenodd" clip-rule="evenodd" d="M36.875 0H0V30H36.875V0ZM8.72861 11.9766L7.99472 15.9888L7.10263 11.9766H5.79306L4.91415 15.9888L4.18027 11.9766H2.64658L4.00888 18.375H5.6041L6.44345 14.7275L7.30038 18.375H8.89999L10.2579 11.9766H8.72861ZM18.8009 11.9766L18.067 15.9888L17.1749 11.9766H15.8653L14.9864 15.9888L14.2525 11.9766H12.7188L14.0811 18.375H15.6764L16.5157 14.7275L17.3727 18.375H18.9723L20.3302 11.9766H18.8009ZM28.8731 11.9766L28.1393 15.9888L27.2472 11.9766H25.9376L25.0587 15.9888L24.3248 11.9766H22.7911L24.1534 18.375H25.7486L26.588 14.7275L27.4449 18.375H29.0445L30.4024 11.9766H28.8731ZM34.0543 17.1489C33.899 17.0083 33.7042 16.938 33.4698 16.938C33.2325 16.938 33.0362 17.0083 32.881 17.1489C32.7286 17.2896 32.6524 17.4668 32.6524 17.6807C32.6524 17.8945 32.7286 18.0718 32.881 18.2124C33.0362 18.353 33.2325 18.4233 33.4698 18.4233C33.7042 18.4233 33.899 18.3545 34.0543 18.2168C34.2096 18.0762 34.2872 17.8975 34.2872 17.6807C34.2872 17.4639 34.2096 17.2866 34.0543 17.1489Z" fill="white"/>
</svg>
